HIERARCHY
ROOT Hips
{
	OFFSET 0.000000 0.000000 0.000000
	CHANNELS 6 Xposition Yposition Zposition Yrotation Xrotation Zrotation
	JOINT Chest
	{
		OFFSET 0.000000 -0.009281 11.569106
		CHANNELS 3 Yrotation Xrotation Zrotation
		JOINT Chest2
		{
			OFFSET -0.000000 0.016865 9.269641
			CHANNELS 3 Yrotation Xrotation Zrotation
			JOINT Chest3
			{
				OFFSET -0.000000 0.000001 8.374491
				CHANNELS 3 Yrotation Xrotation Zrotation
				JOINT Chest4
				{
					OFFSET -0.000000 0.000001 8.374493
					CHANNELS 3 Yrotation Xrotation Zrotation
					JOINT Neck
					{
						OFFSET -0.000000 0.000002 12.152554
						CHANNELS 3 Yrotation Xrotation Zrotation
						JOINT Head
						{
							OFFSET -0.000000 0.040101 7.802319
							CHANNELS 3 Yrotation Xrotation Zrotation
							End Site
							{
								OFFSET -0.000000 0.020947 14.853096
							}
						}
					}
					JOINT RightCollar
					{
						OFFSET 2.894404 0.000001 6.791374
						CHANNELS 3 Yrotation Xrotation Zrotation
						JOINT RightShoulder
						{
							OFFSET 13.574684 0.000001 0.000000
							CHANNELS 3 Yrotation Xrotation Zrotation
							JOINT RightElbow
							{
								OFFSET 23.923903 0.000002 0.000000
								CHANNELS 3 Yrotation Xrotation Zrotation
								JOINT RightWrist
								{
									OFFSET 19.846718 0.012767 0.000000
									CHANNELS 3 Yrotation Xrotation Zrotation
									End Site
									{
										OFFSET 14.973145 0.000001 0.000000
									}
								}
							}
						}
					}
					JOINT LeftCollar
					{
						OFFSET -2.894404 0.000001 6.791374
						CHANNELS 3 Yrotation Xrotation Zrotation
						JOINT LeftShoulder
						{
							OFFSET -13.574684 -0.000001 0.000000
							CHANNELS 3 Yrotation Xrotation Zrotation
							JOINT LeftElbow
							{
								OFFSET -23.923903 -0.000002 0.000000
								CHANNELS 3 Yrotation Xrotation Zrotation
								JOINT LeftWrist
								{
									OFFSET -19.846718 0.012763 0.000000
									CHANNELS 3 Yrotation Xrotation Zrotation
									End Site
									{
										OFFSET -14.973145 -0.000001 0.000000
									}
								}
							}
						}
					}
				}
			}
		}
	}
	JOINT RightHip
	{
		OFFSET 9.469263 0.004643 0.045487
		CHANNELS 3 Yrotation Xrotation Zrotation
		JOINT RightKnee
		{
			OFFSET 0.000000 0.002661 -40.478676
			CHANNELS 3 Yrotation Xrotation Zrotation
			JOINT RightAnkle
			{
				OFFSET 0.000000 0.049106 -35.224068
				CHANNELS 3 Yrotation Xrotation Zrotation
				JOINT RightToe
				{
					OFFSET -0.000001 12.539529 -6.151390
					CHANNELS 3 Yrotation Xrotation Zrotation
					End Site
					{
						OFFSET -0.000001 5.044994 -1.291870
					}
				}
			}
		}
	}
	JOINT LeftHip
	{
		OFFSET -9.469263 0.004641 0.045487
		CHANNELS 3 Yrotation Xrotation Zrotation
		JOINT LeftKnee
		{
			OFFSET 0.000000 0.002661 -40.478676
			CHANNELS 3 Yrotation Xrotation Zrotation
			JOINT LeftAnkle
			{
				OFFSET 0.000000 0.049106 -35.224068
				CHANNELS 3 Yrotation Xrotation Zrotation
				JOINT LeftToe
				{
					OFFSET -0.000001 12.539529 -6.151390
					CHANNELS 3 Yrotation Xrotation Zrotation
					End Site
					{
						OFFSET -0.000001 5.044994 -1.291870
					}
				}
			}
		}
	}
}
MOTION
Frames: 15
Frame Time: 0.016667
65.936844 -12.251349 83.522858 0.459946 0.188706 -104.726321 -1.103019 -2.483369 2.572653 -0.798510 -1.121785 -0.027090 -0.798510 -1.121784 -0.027089 -0.598913 -0.841305 -0.021781 3.655877 -18.849107 -6.402530 4.638437 1.220905 -10.556658 8.445405 1.011488 -2.157619 47.702625 -18.125162 -6.689911 21.967558 -36.283785 39.854523 -26.289328 39.026137 67.578896 -7.516379 3.075109 -4.250583 -43.957615 -6.586152 9.396025 -34.622185 -54.541048 -19.986935 13.992636 12.132779 -55.902660 2.320805 -6.708892 -18.292667 6.924820 -18.340596 -4.998106 5.810289 -6.580962 21.115308 -23.003647 23.895041 -5.485129 -10.185997 8.493367 -0.438161 -4.671971 -2.021852 15.132774 8.849909 -15.811671 4.963348 5.411946 13.465966 -0.131652 
65.079941 -11.813665 83.684952 0.990213 0.196023 -104.583788 -1.054913 -2.360254 2.843396 -0.793814 -1.088536 -0.034418 -0.793814 -1.088537 -0.034418 -0.595404 -0.816359 -0.027224 3.716593 -18.967789 -6.411109 4.753480 1.004080 -10.552055 8.422218 0.988144 -2.138035 47.705453 -18.119078 -6.761161 22.066946 -36.388526 39.972466 -26.297518 38.944093 67.539390 -7.533885 3.092123 -4.182398 -44.014139 -6.587053 9.506637 -34.532521 -54.557587 -20.067419 13.931202 12.108448 -55.903480 2.681057 -6.101277 -17.749165 7.035692 -17.095924 -5.571805 5.171313 -6.265733 20.463469 -21.727713 23.012495 -4.839399 -10.044457 9.764671 -0.505670 -4.525522 -1.890378 15.389763 7.922041 -18.218059 4.311226 6.631739 15.168655 0.010790 
64.204330 -11.371198 83.822563 1.517462 0.196559 -104.348516 -0.987954 -2.231168 3.032685 -0.797224 -1.059890 -0.043684 -0.797224 -1.059889 -0.043683 -0.597976 -0.794862 -0.034144 3.794209 -19.096534 -6.416879 4.900774 0.769532 -10.537089 8.383601 0.951262 -2.136543 47.731985 -18.091957 -6.808843 22.182052 -36.494333 40.072508 -26.317713 38.832412 67.481688 -7.535306 3.103631 -4.096416 -44.061188 -6.483559 9.673787 -34.506327 -54.607390 -20.127543 13.886327 12.021119 -55.891394 3.015725 -5.411627 -17.294365 7.137533 -16.016488 -6.081904 4.304702 -5.975997 19.999294 -20.417905 22.245629 -4.217287 -9.865954 11.071143 -0.679831 -4.361820 -1.820587 15.721113 6.523434 -20.659821 3.632526 8.328051 16.836362 0.276133 
63.270229 -10.926170 83.935219 2.126361 0.192392 -103.971223 -0.898184 -1.987991 3.098955 -0.807585 -1.042165 -0.056410 -0.807585 -1.042165 -0.056409 -0.605768 -0.781551 -0.043683 3.893696 -19.239238 -6.427543 5.087110 0.510146 -10.524382 8.350839 0.890119 -2.139281 47.795389 -18.048485 -6.863403 22.285003 -36.562170 40.182782 -26.332114 38.716828 67.425852 -7.514073 3.077034 -4.023830 -44.084500 -6.283989 9.878188 -34.508247 -54.689509 -20.209282 13.874104 11.892563 -55.874561 3.409345 -4.606283 -17.048249 7.227724 -14.950748 -6.169683 3.219454 -5.652957 19.147996 -18.934813 21.576540 -3.513332 -9.643547 12.470964 -0.961414 -4.149262 -1.823608 15.919206 4.676333 -22.997071 3.056249 10.398455 18.292129 0.609873 
62.289146 -10.530995 84.014420 2.744324 0.179476 -103.517739 -0.811405 -1.691587 3.112978 -0.820304 -1.032099 -0.073888 -0.820304 -1.032098 -0.073887 -0.615336 -0.773977 -0.056800 4.007780 -19.403198 -6.449334 5.297574 0.211889 -10.527820 8.335004 0.788424 -2.119087 47.879636 -17.962009 -6.929769 22.394285 -36.584040 40.285880 -26.348679 38.596911 67.372829 -7.466313 2.988279 -3.948212 -44.085265 -6.045327 10.059564 -34.482671 -54.816182 -20.345534 13.865753 11.791557 -55.845396 3.835133 -3.734984 -16.874356 7.355556 -13.962242 -6.221463 1.854194 -5.359151 18.341402 -17.354932 21.049130 -2.836629 -9.377949 13.863552 -1.148246 -3.958810 -1.824552 15.754578 2.460285 -25.218911 2.530980 12.831916 19.447145 1.119928 
61.299942 -10.131371 84.055458 3.180618 0.238064 -102.874124 -0.836482 -1.501850 2.957730 -0.834169 -1.029028 -0.096720 -0.834169 -1.029028 -0.096721 -0.625773 -0.771641 -0.073943 4.128040 -19.586083 -6.479730 5.517443 -0.121319 -10.545605 8.317967 0.653133 -2.106733 47.958132 -17.849953 -6.959474 22.474703 -36.591331 40.380109 -26.356064 38.475200 67.328556 -7.423156 2.901266 -3.863049 -44.060679 -5.859445 10.236813 -34.456600 -54.937554 -20.508507 13.852975 11.711107 -55.813089 4.213797 -2.973426 -16.809253 7.429519 -13.034710 -6.762424 0.488715 -4.956933 17.659136 -15.699390 20.593000 -2.174409 -9.272522 15.002785 -1.423791 -3.740481 -1.788866 15.293753 0.022867 -27.238805 2.145883 15.399426 20.260339 1.654715 
60.228245 -9.778900 84.062141 3.582235 0.296681 -102.054016 -0.865821 -1.296906 2.629615 -0.849915 -1.027886 -0.121050 -0.849915 -1.027886 -0.121052 -0.637623 -0.770748 -0.092216 4.252797 -19.778525 -6.517959 5.743418 -0.472151 -10.576913 8.298022 0.554568 -2.119480 48.026516 -17.774541 -6.978950 22.510494 -36.606286 40.455299 -26.349333 38.350522 67.305299 -7.400069 2.808638 -3.802894 -44.006007 -5.708197 10.421752 -34.465415 -55.025660 -20.669156 13.848001 11.652303 -55.790204 4.624923 -2.193837 -16.992855 7.448120 -12.171656 -7.635317 -0.800124 -4.396406 17.238854 -14.094988 19.917667 -1.598056 -9.324814 15.990900 -1.954997 -3.561155 -1.807403 14.844694 -2.487810 -28.815468 1.815932 18.069158 20.429039 2.247899 
58.987713 -9.489807 84.038872 3.854276 0.530327 -100.806673 -1.069934 -1.141200 1.852451 -0.873431 -1.031836 -0.135997 -0.873432 -1.031837 -0.135999 -0.655286 -0.773684 -0.103470 4.381016 -19.975397 -6.564876 5.973100 -0.831113 -10.623674 8.281917 0.504622 -2.157047 48.077613 -17.726245 -6.973816 22.515459 -36.657786 40.478491 -26.329645 38.215516 67.303830 -7.415793 2.779011 -3.767812 -43.910180 -5.601900 10.640588 -34.520370 -55.100622 -20.800781 13.847701 11.648637 -55.804493 4.840909 -1.402760 -17.792665 7.473606 -11.383221 -8.402268 -1.872284 -3.666771 16.886731 -12.754152 18.920360 -1.323394 -9.907288 16.719714 -3.131154 -3.455271 -1.996694 14.593741 -4.677956 -29.881828 1.195743 20.627663 19.782653 3.116795 
57.699856 -9.260768 83.985352 3.809793 0.847378 -99.546865 -1.383001 -1.261904 1.011267 -0.907462 -1.049073 -0.137126 -0.907462 -1.049072 -0.137126 -0.680813 -0.786603 -0.104398 4.502386 -20.160301 -6.610095 6.190080 -1.168204 -10.669976 8.271295 0.468393 -2.172151 48.095078 -17.684799 -6.899197 22.504741 -36.741811 40.455419 -26.313601 38.099533 67.324253 -7.490995 2.882695 -3.742685 -43.784777 -5.533844 10.918984 -34.553056 -55.146237 -20.950719 13.829264 11.659106 -55.849453 4.860884 -0.909393 -18.820397 7.493009 -10.655650 -8.841187 -2.844200 -2.750084 16.685804 -11.579373 17.625291 -1.200853 -10.676606 17.167836 -4.576520 -3.423508 -2.207845 14.635048 -6.199188 -30.501101 0.722278 22.390187 18.205285 3.782461 
56.518120 -9.041195 83.902184 3.422053 1.173204 -98.516975 -1.727344 -1.695972 0.346226 -0.954177 -1.080023 -0.120893 -0.954178 -1.080024 -0.120894 -0.715826 -0.809832 -0.092353 4.611604 -20.334045 -6.654222 6.384599 -1.485221 -10.718465 8.270174 0.412603 -2.182635 48.104565 -17.699231 -6.722563 22.499043 -36.820392 40.387715 -26.316031 38.054518 67.356976 -7.571165 2.982833 -3.745988 -43.684087 -5.357328 11.183355 -34.469963 -55.177950 -21.158463 13.813263 11.611813 -55.926094 4.760852 -0.810329 -19.738825 7.483258 -10.008075 -8.950780 -3.657945 -1.692132 16.440878 -10.541833 16.154485 -1.149409 -11.382078 17.350899 -5.965443 -3.429969 -2.352961 14.859299 -7.317494 -30.894558 0.469233 23.506111 15.847516 4.138395 
55.451069 -8.820111 83.801392 2.958136 1.451419 -97.859754 -2.020654 -2.168667 -0.007952 -1.008320 -1.124514 -0.092403 -1.008320 -1.124514 -0.092403 -0.756386 -0.843235 -0.071156 4.697043 -20.489869 -6.686869 6.538332 -1.770088 -10.753531 8.287186 0.336861 -2.182080 48.107956 -17.806081 -6.455075 22.550438 -36.844479 40.271502 -26.344820 38.081487 67.388306 -7.626108 3.054780 -3.734650 -43.619613 -5.070363 11.376755 -34.250667 -55.245889 -21.417158 13.802322 11.527348 -56.052706 4.618419 -0.807840 -20.253971 7.444171 -9.552686 -8.842172 -4.390390 -0.542660 16.183761 -9.569564 14.637422 -1.076843 -11.897517 17.505911 -7.054899 -3.480839 -2.397174 14.968824 -8.120909 -31.068007 0.676066 24.030894 12.973385 4.194625 
54.498413 -8.577827 83.689240 2.507744 1.679351 -97.468411 -2.277409 -2.585806 -0.136591 -1.057791 -1.177070 -0.054202 -1.057791 -1.177069 -0.054204 -0.793420 -0.882712 -0.042689 4.755985 -20.626639 -6.711990 6.645146 -2.020856 -10.782978 8.328085 0.251069 -2.190013 48.109312 -17.991541 -6.185340 22.641843 -36.786419 40.174927 -26.391941 38.149185 67.411399 -7.650984 3.094512 -3.729434 -43.592931 -4.751281 11.468269 -33.906118 -55.348957 -21.724936 13.782268 11.429178 -56.190774 4.465002 -0.757170 -20.384440 7.409337 -9.319266 -8.725150 -5.010164 0.638958 15.685507 -8.670443 13.183713 -0.986088 -12.287212 17.728692 -7.886695 -3.532825 -2.475127 14.976460 -8.322319 -31.030868 1.484318 18.816825 9.882836 2.829208 
53.608742 -8.330888 83.567642 2.190951 1.825626 -97.217825 -2.463261 -2.833203 -0.151743 -1.094834 -1.231651 -0.015951 -1.094834 -1.231651 -0.015952 -0.821125 -0.923713 -0.014170 4.790938 -20.749643 -6.725512 6.711108 -2.247208 -10.798550 8.386892 0.188725 -2.198976 48.119263 -18.182326 -6.011411 22.700631 -36.695526 40.152968 -26.443303 38.245245 67.421159 -7.643307 3.118867 -3.720188 -43.587105 -4.491417 11.482994 -33.518279 -55.458308 -22.045680 13.764387 11.323058 -56.289174 4.347148 -0.505257 -20.304894 7.373253 -9.330807 -8.752561 -5.589381 1.859813 15.199268 -7.805302 11.805124 -0.854232 -12.555328 18.128599 -8.541301 -3.518050 -2.613787 15.202744 -8.078532 -30.506483 2.707483 14.259601 7.176750 1.882079 
52.792355 -8.090588 83.438202 1.900982 1.876051 -96.966092 -2.569552 -3.027950 -0.179982 -1.114389 -1.280870 0.016552 -1.114389 -1.280871 0.016553 -0.835722 -0.960686 0.010078 4.810318 -20.866423 -6.731119 6.750818 -2.462734 -10.804431 8.443132 0.173407 -2.220893 48.145638 -18.288286 -5.966757 22.718847 -36.621490 40.160959 -26.486094 38.332302 67.440789 -7.638585 3.141831 -3.731594 -43.566587 -4.326779 11.472487 -33.204384 -55.522744 -22.313618 13.771150 11.164173 -56.311013 4.309309 -0.215834 -20.208744 7.368921 -9.431388 -8.830793 -6.209842 2.983203 14.679484 -6.975376 10.566744 -0.731194 -12.641627 18.575096 -9.011025 -3.504420 -2.749680 15.803709 -7.390692 -29.568411 3.776792 10.492497 4.678340 1.280607 
52.033920 -7.874838 83.309143 1.641962 1.837943 -96.738087 -2.590366 -3.163120 -0.184812 -1.120462 -1.316063 0.026336 -1.120461 -1.316062 0.026336 -0.840254 -0.987100 0.017338 4.814582 -20.989863 -6.720504 6.768218 -2.691264 -10.785505 8.485640 0.179570 -2.232412 48.187162 -18.260096 -6.034706 22.655246 -36.606457 40.180890 -26.504906 38.386773 67.467509 -7.659363 3.157683 -3.743990 -43.515535 -4.252518 11.487334 -32.951517 -55.575067 -22.541216 13.795439 10.994317 -56.264182 4.348315 0.071573 -20.101214 7.389226 -9.545107 -8.939981 -6.895674 3.922802 14.237260 -6.172882 9.517772 -0.617129 -12.481324 19.027051 -9.046996 -3.577836 -2.768376 16.421259 -6.219649 -28.406123 4.513235 7.413109 2.408047 0.899629 
